<svg xmlns="http://www.w3.org/2000/svg" xmlns:xlink="http://www.w3.org/1999/xlink" width="2000" zoomAndPan="magnify" viewBox="0 0 1500 1499.999933" height="2000" preserveAspectRatio="xMidYMid meet" version="1.0"><defs><clipPath id="ff6d890376"><path d="M 70.5 0 L 1429.5 0 C 1468.4375 0 1500 31.5625 1500 70.5 L 1500 1429.5 C 1500 1468.4375 1468.4375 1500 1429.5 1500 L 70.5 1500 C 31.5625 1500 0 1468.4375 0 1429.5 L 0 70.5 C 0 31.5625 31.5625 0 70.5 0 Z M 70.5 0 " clip-rule="nonzero"/></clipPath><clipPath id="073d276339"><path d="M 0 0 L 1500 0 L 1500 1500 L 0 1500 Z M 0 0 " clip-rule="nonzero"/></clipPath><clipPath id="bd5f4d056b"><path d="M 70.5 0 L 1429.5 0 C 1468.4375 0 1500 31.5625 1500 70.5 L 1500 1429.5 C 1500 1468.4375 1468.4375 1500 1429.5 1500 L 70.5 1500 C 31.5625 1500 0 1468.4375 0 1429.5 L 0 70.5 C 0 31.5625 31.5625 0 70.5 0 Z M 70.5 0 " clip-rule="nonzero"/></clipPath><clipPath id="663c0b6506"><rect x="0" width="1500" y="0" height="1500"/></clipPath><clipPath id="a67c3f897a"><path d="M 40.910156 5 L 1339 5 L 1339 1500 L 40.910156 1500 Z M 40.910156 5 " clip-rule="nonzero"/></clipPath></defs><g clip-path="url(#ff6d890376)"><g transform="matrix(1, 0, 0, 1, 0, 0.000000000000112861)"><g clip-path="url(#663c0b6506)"><g clip-path="url(#073d276339)"><g clip-path="url(#bd5f4d056b)"><rect x="-330" width="2160" fill="#fffcf7" height="2159.999904" y="-329.999985" fill-opacity="1"/></g></g></g></g></g><g clip-path="url(#a67c3f897a)"><path fill="#ff6e00" d="M 500.421875 585.027344 C 515.570312 616.605469 524.054688 651.859375 524.054688 689.234375 C 524.054688 822.746094 415.753906 931.042969 282.242188 931.042969 C 148.609375 931.015625 40.3125 822.714844 40.3125 689.234375 C 40.3125 594.378906 94.953125 512.402344 174.394531 472.789062 C 302.230469 408.945312 500.570312 425.496094 590.617188 537.914062 C 783.160156 778.441406 451.726562 1132.492188 704.441406 1314.285156 C 704.441406 1314.285156 564.714844 904.457031 929.101562 703.425781 C 929.101562 703.425781 1130.402344 787.222656 1108.054688 1212.230469 C 1354.078125 459.613281 592.585938 544.816406 501.976562 232.378906 C 634.472656 83.453125 791.347656 51.457031 933.34375 101.136719 C 960.382812 65.316406 1023.808594 0.488281 1125.441406 6.136719 C 1125.441406 6.136719 1168.910156 119.8125 1095.714844 199.667969 C 1337.226562 415.84375 1459.835938 891.371094 1167.777344 1362.953125 C 1167.777344 1362.953125 1265.019531 1388.015625 1305.949219 1499.570312 L 406.136719 1499.570312 C 67.199219 1192.511719 750 867.46875 500.421875 585.027344 Z M 500.421875 585.027344 " fill-opacity="1" fill-rule="evenodd"/></g></svg>