<svg xmlns="http://www.w3.org/2000/svg" xmlns:xlink="http://www.w3.org/1999/xlink" width="2000" zoomAndPan="magnify" viewBox="0 0 1500 599.999999" height="800" preserveAspectRatio="xMidYMid meet" version="1.0"><defs><g/><clipPath id="1a0b53844e"><path d="M 0 1 L 374 1 L 374 431.652344 L 0 431.652344 Z M 0 1 " clip-rule="nonzero"/></clipPath><clipPath id="64771e9f18"><path d="M 366 121 L 1500 121 L 1500 532.71875 L 366 532.71875 Z M 366 121 " clip-rule="nonzero"/></clipPath><clipPath id="c89899e435"><rect x="0" width="1134" y="0" height="412"/></clipPath><clipPath id="fdc23d3d3f"><rect x="0" width="1500" y="0" height="533"/></clipPath></defs><g transform="matrix(1, 0, 0, 1, 0, 26)"><g clip-path="url(#fdc23d3d3f)"><g clip-path="url(#1a0b53844e)"><path fill="#D97706" d="M 132.222656 168.285156 C 136.582031 177.371094 139.023438 187.515625 139.023438 198.269531 C 139.023438 236.6875 107.863281 267.851562 69.441406 267.851562 C 30.992188 267.84375 -0.171875 236.679688 -0.171875 198.269531 C -0.171875 170.976562 15.550781 147.386719 38.410156 135.988281 C 75.195312 117.617188 132.265625 122.378906 158.175781 154.730469 C 213.582031 223.941406 118.210938 325.820312 190.929688 378.128906 C 190.929688 378.128906 150.722656 260.199219 255.574219 202.355469 C 255.574219 202.355469 313.5 226.46875 307.070312 348.761719 C 377.863281 132.199219 158.746094 156.714844 132.671875 66.8125 C 170.796875 23.957031 215.9375 14.75 256.796875 29.046875 C 264.578125 18.742188 282.828125 0.0859375 312.074219 1.710938 C 312.074219 1.710938 324.582031 34.421875 303.519531 57.398438 C 373.011719 119.605469 408.292969 256.4375 324.253906 392.132812 C 324.253906 392.132812 352.234375 399.34375 364.011719 431.445312 L 105.09375 431.445312 C 7.566406 343.089844 204.039062 249.558594 132.222656 168.285156 Z M 132.222656 168.285156 " fill-opacity="1" fill-rule="evenodd"/></g><g clip-path="url(#64771e9f18)"><g transform="matrix(1, 0, 0, 1, 366, 121)"><g clip-path="url(#c89899e435)"><g fill="#D97706" fill-opacity="1"><g transform="translate(0.62477, 308.636814)"><g><path d="M 149.5625 -225.15625 C 173.113281 -225.15625 192.765625 -220.289062 208.515625 -210.5625 C 224.265625 -200.84375 235.492188 -187.628906 242.203125 -170.921875 C 248.921875 -154.210938 250.5 -135.175781 246.9375 -113.8125 C 244.195312 -97.375 242.960938 -83.398438 243.234375 -71.890625 C 243.515625 -60.390625 247.625 -51.082031 255.5625 -43.96875 C 261.039062 -39.3125 267 -37.597656 273.4375 -38.828125 C 279.875 -40.054688 286.378906 -43.957031 292.953125 -50.53125 L 299.109375 -43.96875 C 293.359375 -36.289062 285.960938 -29.164062 276.921875 -22.59375 C 267.890625 -16.019531 258.097656 -10.539062 247.546875 -6.15625 C 237.003906 -1.78125 226.320312 0.75 215.5 1.4375 C 204.6875 2.125 194.550781 0.414062 185.09375 -3.6875 C 175.644531 -7.800781 167.769531 -14.925781 161.46875 -25.0625 C 160.375 -17.394531 156.472656 -11.023438 149.765625 -5.953125 C 143.054688 -0.890625 131.070312 1.640625 113.8125 1.640625 C 77.382812 1.640625 50.539062 -3.972656 33.28125 -15.203125 C 16.019531 -26.429688 7.390625 -42.59375 7.390625 -63.6875 C 7.390625 -107.238281 45.46875 -129.015625 121.625 -129.015625 C 127.914062 -129.015625 134.003906 -128.875 139.890625 -128.59375 C 145.785156 -128.320312 151.335938 -127.914062 156.546875 -127.375 C 159.828125 -152.300781 160.710938 -171.269531 159.203125 -184.28125 C 157.703125 -197.289062 154.28125 -205.847656 148.9375 -209.953125 C 143.601562 -214.066406 136.550781 -214.890625 127.78125 -212.421875 C 122.300781 -210.773438 118.328125 -207.078125 115.859375 -201.328125 C 113.398438 -195.578125 111.347656 -188.863281 109.703125 -181.1875 C 108.054688 -173.519531 105.863281 -165.988281 103.125 -158.59375 C 100.382812 -151.195312 96.207031 -145.035156 90.59375 -140.109375 C 84.976562 -135.179688 76.832031 -132.71875 66.15625 -132.71875 C 54.375 -132.71875 44.785156 -135.453125 37.390625 -140.921875 C 29.992188 -146.398438 24.925781 -155.644531 22.1875 -168.65625 C 19.445312 -181.675781 19.3125 -199.550781 21.78125 -222.28125 L 32.453125 -222.28125 C 32.453125 -214.613281 33.753906 -208.242188 36.359375 -203.171875 C 38.960938 -198.109375 43.6875 -195.578125 50.53125 -195.578125 C 57.113281 -195.578125 63.757812 -197.082031 70.46875 -200.09375 C 77.175781 -203.101562 84.363281 -206.523438 92.03125 -210.359375 C 99.707031 -214.203125 108.269531 -217.628906 117.71875 -220.640625 C 127.164062 -223.648438 137.78125 -225.15625 149.5625 -225.15625 Z M 150.796875 -71.90625 C 151.066406 -79.019531 151.613281 -86.273438 152.4375 -93.671875 C 153.257812 -101.066406 154.21875 -108.601562 155.3125 -116.28125 L 155.3125 -117.921875 C 144.625 -119.285156 134.554688 -119.832031 125.109375 -119.5625 C 115.660156 -119.289062 108.0625 -117.648438 102.3125 -114.640625 C 94.363281 -110.796875 89.84375 -103.53125 88.75 -92.84375 C 87.65625 -82.164062 89.984375 -69.707031 95.734375 -55.46875 C 103.128906 -36.84375 111.070312 -24.3125 119.5625 -17.875 C 128.050781 -11.4375 136.269531 -10.132812 144.21875 -13.96875 C 147.5 -15.613281 149.550781 -19.445312 150.375 -25.46875 C 151.195312 -31.5 151.472656 -38.691406 151.203125 -47.046875 C 150.929688 -55.398438 150.796875 -63.6875 150.796875 -71.90625 Z M 150.796875 -71.90625 "/></g></g></g><g fill="#D97706" fill-opacity="1"><g transform="translate(282.896987, 308.636814)"><g><path d="M 8.21875 -278.578125 L 18.484375 -278.578125 C 18.484375 -268.984375 20.398438 -261.925781 24.234375 -257.40625 C 28.078125 -252.894531 33.007812 -249.75 39.03125 -247.96875 C 45.0625 -246.1875 51.5 -244.882812 58.34375 -244.0625 C 65.1875 -243.238281 71.617188 -242.070312 77.640625 -240.5625 C 83.671875 -239.0625 88.601562 -236.253906 92.4375 -232.140625 C 96.28125 -228.035156 98.203125 -221.460938 98.203125 -212.421875 L 98.203125 0 L 8.21875 0 Z M 8.21875 -278.578125 "/></g></g></g><g fill="#D97706" fill-opacity="1"><g transform="translate(406.570949, 308.636814)"><g><path d="M 9.453125 -222.28125 L 19.71875 -222.28125 C 19.71875 -211.320312 21.769531 -203.378906 25.875 -198.453125 C 29.988281 -193.523438 35.398438 -190.785156 42.109375 -190.234375 C 48.828125 -189.679688 56.15625 -190.367188 64.09375 -192.296875 C 72.3125 -194.210938 80.390625 -197.835938 88.328125 -203.171875 C 96.273438 -208.515625 104.628906 -213.515625 113.390625 -218.171875 C 122.160156 -222.828125 131.75 -225.15625 142.15625 -225.15625 C 165.988281 -225.15625 185.710938 -220.289062 201.328125 -210.5625 C 216.941406 -200.84375 228.101562 -187.628906 234.8125 -170.921875 C 241.519531 -154.210938 243.097656 -135.175781 239.546875 -113.8125 C 237.078125 -97.375 235.910156 -83.398438 236.046875 -71.890625 C 236.179688 -60.390625 240.222656 -51.082031 248.171875 -43.96875 C 253.648438 -39.3125 259.609375 -37.597656 266.046875 -38.828125 C 272.484375 -40.054688 278.988281 -43.957031 285.5625 -50.53125 L 291.71875 -43.96875 C 284.875 -34.925781 275.765625 -26.566406 264.390625 -18.890625 C 253.023438 -11.222656 240.835938 -5.539062 227.828125 -1.84375 C 214.816406 1.851562 202.144531 2.535156 189.8125 0.203125 C 177.488281 -2.117188 166.945312 -8.757812 158.1875 -19.71875 C 151.613281 -28.207031 147.367188 -37.585938 145.453125 -47.859375 C 143.535156 -58.140625 143.054688 -69.097656 144.015625 -80.734375 C 144.972656 -92.378906 146.273438 -104.226562 147.921875 -116.28125 C 151.203125 -137.375 152.5 -154.21875 151.8125 -166.8125 C 151.132812 -179.414062 149.015625 -188.796875 145.453125 -194.953125 C 141.890625 -201.117188 137.4375 -204.75 132.09375 -205.84375 C 126.75 -206.9375 121.066406 -206.523438 115.046875 -204.609375 C 109.015625 -202.691406 104.972656 -198.859375 102.921875 -193.109375 C 100.867188 -187.359375 99.707031 -180.375 99.4375 -172.15625 L 99.4375 0 L 9.453125 0 Z M 9.453125 -222.28125 "/></g></g></g><g fill="#D97706" fill-opacity="1"><g transform="translate(685.556184, 308.636814)"><g><path d="M 239.125 0 L 228.859375 0 C 228.859375 -10.40625 227.078125 -18.003906 223.515625 -22.796875 C 219.953125 -27.597656 215.429688 -30.546875 209.953125 -31.640625 C 199.273438 -33.828125 189.757812 -33.414062 181.40625 -30.40625 C 173.050781 -27.394531 165.101562 -23.351562 157.5625 -18.28125 C 150.03125 -13.21875 142.15625 -8.628906 133.9375 -4.515625 C 125.726562 -0.410156 116.554688 1.640625 106.421875 1.640625 C 82.859375 1.640625 63.203125 -3.21875 47.453125 -12.9375 C 31.703125 -22.664062 20.539062 -35.953125 13.96875 -52.796875 C 7.394531 -69.640625 5.753906 -88.742188 9.046875 -110.109375 C 11.773438 -126.546875 13.003906 -140.582031 12.734375 -152.21875 C 12.460938 -163.863281 8.351562 -173.113281 0.40625 -179.96875 C -4.789062 -184.625 -10.675781 -186.265625 -17.25 -184.890625 C -23.832031 -183.523438 -30.410156 -179.691406 -36.984375 -173.390625 L -43.140625 -179.96875 C -36.296875 -189 -27.1875 -197.347656 -15.8125 -205.015625 C -4.445312 -212.691406 7.804688 -218.378906 20.953125 -222.078125 C 34.097656 -225.773438 46.832031 -226.457031 59.15625 -224.125 C 71.488281 -221.800781 81.898438 -215.160156 90.390625 -204.203125 C 96.960938 -195.984375 101.207031 -186.671875 103.125 -176.265625 C 105.039062 -165.859375 105.585938 -154.832031 104.765625 -143.1875 C 103.953125 -131.550781 102.585938 -119.707031 100.671875 -107.65625 C 97.378906 -86.5625 96.070312 -69.644531 96.75 -56.90625 C 97.4375 -44.164062 99.5625 -34.78125 103.125 -28.75 C 106.6875 -22.726562 111.140625 -19.101562 116.484375 -17.875 C 121.828125 -16.644531 127.507812 -16.988281 133.53125 -18.90625 C 139.007812 -20.820312 142.910156 -24.175781 145.234375 -28.96875 C 147.566406 -33.757812 148.867188 -39.578125 149.140625 -46.421875 L 149.140625 -222.28125 L 239.125 -222.28125 Z M 239.125 0 "/></g></g></g><g fill="#D97706" fill-opacity="1"><g transform="translate(935.780047, 308.636814)"><g><path d="M 125.734375 -149.96875 C 125.734375 -139.28125 123.265625 -130.648438 118.328125 -124.078125 C 113.398438 -117.503906 107.171875 -112.234375 99.640625 -108.265625 C 92.109375 -104.296875 84.570312 -100.800781 77.03125 -97.78125 C 69.5 -94.769531 62.992188 -91.550781 57.515625 -88.125 C 52.046875 -84.707031 48.898438 -80.394531 48.078125 -75.1875 C 47.253906 -69.707031 48.210938 -64.570312 50.953125 -59.78125 C 53.691406 -54.988281 59.304688 -52.59375 67.796875 -52.59375 C 74.921875 -52.59375 81.148438 -55.125 86.484375 -60.1875 C 91.828125 -65.257812 97.097656 -71.015625 102.296875 -77.453125 C 107.503906 -83.890625 113.328125 -89.640625 119.765625 -94.703125 C 126.203125 -99.773438 134.078125 -102.3125 143.390625 -102.3125 C 156.816406 -102.3125 167.296875 -99.160156 174.828125 -92.859375 C 182.359375 -86.554688 187.765625 -78.335938 191.046875 -68.203125 C 194.335938 -58.066406 196.050781 -47.039062 196.1875 -35.125 C 196.320312 -23.207031 195.707031 -11.632812 194.34375 -0.40625 L 184.890625 -0.40625 C 184.890625 -9.445312 184.066406 -16.640625 182.421875 -21.984375 C 180.785156 -27.328125 175.3125 -30 166 -30 C 161.0625 -30 156.878906 -28.351562 153.453125 -25.0625 C 150.035156 -21.78125 146.546875 -17.945312 142.984375 -13.5625 C 139.421875 -9.175781 134.898438 -5.335938 129.421875 -2.046875 C 123.941406 1.234375 116.6875 2.875 107.65625 2.875 C 96.144531 2.875 84.910156 0.34375 73.953125 -4.71875 C 62.992188 -9.789062 53.953125 -18.832031 46.828125 -31.84375 C 39.710938 -44.851562 36.15625 -63.132812 36.15625 -86.6875 L 36.15625 -212.828125 L 7.390625 -212.828125 L 7.390625 -222.28125 L 36.15625 -222.28125 C 55.332031 -222.28125 70.738281 -225.15625 82.375 -230.90625 C 94.019531 -236.664062 102.507812 -243.859375 107.84375 -252.484375 C 113.1875 -261.109375 115.859375 -269.941406 115.859375 -278.984375 L 125.734375 -278.984375 L 125.734375 -222.28125 L 186.953125 -222.28125 L 186.953125 -212.828125 L 125.734375 -212.828125 Z M 125.734375 -149.96875 "/></g></g></g></g></g></g></g></g></svg>